<?xml version="1.0" encoding="iso-8859-1"?>
<!-- Generator: Adobe Illustrator 16.0.0, SVG Export Plug-In . SVG Version: 6.00 Build 0)  -->
<!DOCTYPE svg PUBLIC "-//W3C//DTD SVG 1.1//EN" "http://www.w3.org/Graphics/SVG/1.1/DTD/svg11.dtd">
<svg version="1.1" id="Capa_1" xmlns="http://www.w3.org/2000/svg" xmlns:xlink="http://www.w3.org/1999/xlink" x="0px" y="0px"
	 width="110.835px" height="110.835px" viewBox="0 0 110.835 110.835" style="enable-background:new 0 0 110.835 110.835;"
	 xml:space="preserve">
<g>
	<g>
		<path d="M110.536,89.462c-0.914-2.39-2.613-4.225-4.376-6.012c-1.674-1.692-3.644-2.636-6.05-2.404
			c-1.22,0.116-1.023-0.368-0.698-1.166c1.33-3.257,1.267-6.538-0.036-9.779c-0.313-0.781-0.42-1.5-0.229-2.312
			c1.506-6.429-0.141-11.959-4.813-16.586c-0.521-0.514-0.581-0.843-0.185-1.474c1.08-1.712,1.729-3.611,1.907-5.622
			c0.073-0.835,0.373-1.09,1.142-1.168c0.94-0.097,1.892-0.242,2.797-0.506c1.958-0.57,3.396-1.815,3.82-3.84
			c0.439-2.08,1.246-3.989,2.143-5.887c0.51-1.082,0.929-2.205,1.105-3.404c0.406-2.732-1.406-5.327-4.119-5.638
			c-0.987-0.112-1.132-0.271-0.981-1.288c0.771-5.218,0.419-10.064-4.998-12.919c-0.129-0.067-0.229-0.192-0.331-0.299
			c-4.167-4.431-9.395-6.667-15.341-7.341C70.96,0.651,59.859,5.845,56.245,16.417c-0.338,0.986-0.63,0.671-1.204,0.306
			c-1.899-1.207-3.927-1.703-6.341-0.799c0.056-0.4,0.079-0.585,0.107-0.769c0.462-3.01,0.945-6.015,1.377-9.029
			c0.219-1.513-0.822-2.166-2.021-2.561c-1.13-0.37-2.009-0.201-2.766,1.003c-1.513,2.41-3.347,4.594-5.409,6.58
			c-0.47,0.452-0.828,0.673-1.532,0.365c-1.357-0.591-2.809-0.617-4.268-0.354c-4.949,0.892-8.807,3.447-11.435,7.714
			c-0.667,1.082-1.385,1.349-2.534,1.303c-4.138-0.165-7.957-1.356-11.485-3.477c-1.353-0.812-3.15-1.004-3.871-2.742
			c-0.153-0.37-0.616-0.276-0.956-0.212c-0.784,0.146-1.573,0.287-2.341,0.501c-1.823,0.503-2.019,1.289-0.771,2.758
			c0.392,0.459,1.034,0.694,0.979,1.552c-0.464,7.075,3.113,11.63,9.274,14.43c4.417,2.01,9.102,2.601,13.91,2.104
			c0.934-0.097,1.415,0.103,1.831,0.98c0.923,1.949,2.228,3.67,3.616,5.314c4.619,5.473,10.015,10.098,16.07,13.854
			c2.369,1.472,3.045,3.051,3.208,5.75c0.198,3.29-0.077,6.342-0.999,9.479c-1.029,3.506-1.052,7.146-0.382,10.771
			c-1.265-0.376-2.393-0.785-3.555-1.046c-5.807-1.292-11.805,3.939-11.423,9.931c0.069,1.072,0.498,1.844,1.666,1.938
			c4.194,0.339,8.434,0.728,12.546-0.303c5.024-1.258,9.9-1.491,14.882,0.222c2.016,0.693,4.256,0.574,6.391,0.131
			c2.259-0.469,3.272-2.002,2.887-4.288c-0.122-0.725-0.347-1.432-0.518-2.12c0.386-0.306,0.732-0.044,1.062-0.081
			c1.434-0.159,1.734,0.438,1.676,1.848c-0.13,3.039,1.127,4.381,4.11,4.88c0.377,0.062,1.003-0.224,1.007,0.531
			c0.002,0.497-0.018,0.999-0.604,1.247c-0.411,0.176-0.798,0.409-1.186,0.637c-1.477,0.864-2.896,1.802-3.838,3.281
			c-0.906,1.428-0.776,3.046,0.297,4.305c0.982,1.153,2.351,1.448,3.948,0.788c0.735-0.305,1.425-0.72,2.256-1.145
			c-0.202,1.308-0.626,2.39-0.632,3.549c-0.013,2.845,2.144,4.275,4.765,3.147c0.949-0.407,1.646-1.115,2.277-1.9
			c0.806-1.007,1.281-2.205,1.957-3.534c0.67,1.519,1.077,2.957,1.938,4.175c0.87,1.233,1.942,2.016,3.548,1.668
			c1.539-0.337,2.411-1.428,2.72-3.187c0.209-1.204-0.142-2.401-0.099-3.741c0.299,0.202,0.421,0.278,0.535,0.364
			c1.985,1.462,3.281,1.557,4.561,0.338c1.341-1.279,1.487-3.04,0.243-4.909c-0.772-1.159-1.727-2.198-2.621-3.273
			c-0.743-0.896-1.561-1.735-2.046-2.909c0.719-0.108,1.243,0.129,1.687,0.41c0.936,0.592,1.951,0.777,3.011,0.728
			c2.348-0.116,4.695-0.222,7.033-0.447C110.707,92.284,111.246,91.313,110.536,89.462z M94.969,84.069
			c-0.156-2.118-0.483-4.163-0.325-6.238c0.03-0.385,0.094-0.837,0.317-1.124c1.312-1.689,2.372-3.531,3.305-5.545
			C100.127,75.248,98.544,81.414,94.969,84.069z M99.805,29.709c0.324,0.078,0.447,0.391,0.473,0.696
			c0.192,2.278,0.018,4.497-1.106,6.548c-0.158,0.291-0.311,0.753-0.739,0.559c-0.374-0.167-0.254-0.631-0.171-0.944
			c0.315-1.179,0.68-2.341,1.044-3.574c-1.516,0.742-2.662,3.879-1.91,5.156c0.562,0.956,1.317,0.963,2.11,0.246
			c1.396-1.262,1.849-2.963,1.969-4.715c0.118-1.712,0.409-3.547-1.212-4.866c-0.282-0.229-0.187-0.53-0.043-0.817
			c0.155-0.313,0.259-0.656,0.442-0.951c0.478-0.78,0.205-2.287,1.889-1.921c1.286,0.279,2.476,1.596,2.588,2.959
			c0.095,1.174-0.148,2.274-0.632,3.346c-0.942,2.089-1.846,4.176-2.242,6.482c-0.381,2.229-3.195,4.073-5.563,3.93
			c-0.383-0.024-0.547-0.186-0.564-0.531c-0.025-0.448,0.105-0.964-0.07-1.339c-1.245-2.649,0.096-4.672,1.479-6.739
			c0.608-0.907,1.023-1.943,1.539-2.917C99.238,30.022,99.346,29.601,99.805,29.709z M98.152,16.409
			c1.443,2.75,1.515,5.642,0.738,8.591c-1.179,4.479-3.307,8.536-5.581,12.526c-0.715,1.255-0.712,1.268,0.728,1.444
			c0.604,0.074,0.457,0.562,0.477,0.885c0.331,5.07-1.197,9.378-5.373,12.485c-4.199,3.125-9.089,4.208-14.197,4.523
			c-1.193,0.073-2.398,0.012-3.938,0.012c1.135-0.632,1.837-1.236,1.209-2.272c-0.628-1.039-1.494-0.698-2.346-0.229
			c-1.049,0.577-2.115,1.104-3.297,1.386c-3.117,0.745-5.843-1.416-5.547-4.606c0.125-1.342-0.639-1.954-1.249-2.901
			c-1.316-2.035-1.831-4.414-1.626-6.875c0.319-3.78,2.228-6.682,5.191-8.9c0.86-0.646,1.021-1.258,0.85-2.272
			c-0.773-4.617-0.466-9.151,1.284-13.539c0.54-1.354,1.265-2.604,2.224-3.706c2.748-3.165,5.576-3.756,9.346-1.934
			c2.708,1.312,4.991,3.152,6.611,5.701c0.687,1.079,1.153,1.293,2.107,0.252c2.198-2.399,5.155-3.174,8.253-3.327
			C95.946,13.556,97.288,14.757,98.152,16.409z M56.164,24.672c-0.073-0.643-0.039-1.302-0.003-1.949
			c0.231-3.974,1.312-7.673,3.779-10.854c3.567-4.599,8.17-7.479,14.07-7.821c6.229-0.362,12.212,0.66,17.671,3.899
			c0.358,0.213,0.854,0.337,1.024,1.027c-3.456,0.652-5.248,3.326-7.062,5.969c-0.631,0.917-0.987,0.783-1.507-0.163
			c-1.032-1.879-2.191-3.68-3.5-5.396C75.567,2.748,68.717,4.084,64.308,9.8c-1.846,2.396-2.605,5.253-2.742,8.26
			c-0.177,3.958,0.076,7.881,1.125,11.721c0.271,0.998-0.062,1.676-0.79,2.37c-3.178,3.035-5.062,6.674-4.821,11.176
			c0.127,2.364,0.716,4.617,2.132,6.586c0.112,0.154,0.229,0.332,0.267,0.515c0.036,0.184-0.027,0.386-0.087,0.927
			c-2.848-3.078-5.463-5.881-7.13-9.41c-1.2-2.541-0.645-4.962,0.932-7.054C55.508,31.821,56.6,28.5,56.164,24.672z M48.945,18.019
			c1.408-1.297,4.838-0.771,6.33,0.341c0.319,0.241,0.324,0.617,0.236,0.962c-0.68,2.645-0.578,5.346-0.493,8.027
			c0.079,2.513-0.967,4.544-2.441,6.416c-0.493,0.626-0.551,1.898-1.563,1.773c-1.343-0.164-2.533-0.871-3.283-2.115
			c-1.039-1.724-1.075-3.71-1.418-5.604c-0.202-1.114-0.549-2.237-0.382-3.201C45.858,21.775,47.052,19.766,48.945,18.019z
			 M50.609,39.404c-0.042,0.382-0.08,0.507-0.14,0.527l0,0c-0.329-0.106-0.547-0.287-0.547-0.287l0,0
			c-2.021-1.655-5.436-4.292-7.464-5.965c1.141-0.887,1.971-1.992,2.445-3.365c0.512,0.511,0.476,1.157,0.651,1.711
			c0.719,2.269,2.153,3.788,4.465,4.366c0.771,0.191,1.113,0.371,0.797,1.24C50.621,38.175,50.675,38.81,50.609,39.404z
			 M41.105,32.877c-2.497,1.182-5.141,1.259-7.86,0.688c3.839-1.646,7.408-3.653,10.33-6.698
			C44.377,29.262,43.375,31.802,41.105,32.877z M47.45,4.723c0.844,0.126,1.56,0.426,1.475,1.655
			c-0.563,0.637,0.417,2.233-1.253,2.449c-0.867,0.11-2.554-1.031-2.513-1.55C45.194,6.828,47.087,4.67,47.45,4.723z M23.354,21.901
			c2.491-5.184,6.614-8.245,12.256-9.273c0.815-0.149,1.351-0.068,2.436,0.252c-0.359,0.433-0.584,0.885-1.062,0.923
			c-0.489,0.039-0.955,0.058-0.938,0.672c0.014,0.55,0.537,0.64,0.936,0.836c1.438,0.703,2.852,1.449,3.995,2.604
			c0.566,0.571,1.062,1.19,1.126,2.05c0.119,1.596-0.832,2.487-2.38,2.104c-2.23-0.553-4.021-1.941-5.85-3.24
			c-0.464-0.329-0.951-1.034-1.542-0.542c-0.698,0.58,0.019,1.16,0.316,1.691c0.95,1.699,1.849,3.416,2.309,5.332
			c0.214,0.895,0.288,1.798,0.067,2.671c-0.434,1.723-1.878,2.127-3.17,0.919c-1.189-1.11-1.917-2.542-2.622-3.977
			c-0.309-0.625-0.576-1.272-0.833-1.921c-0.18-0.454-0.405-0.836-0.97-0.702c-0.525,0.123-0.462,0.582-0.453,0.976
			c0.033,1.45,0.109,2.904-0.262,4.326c-0.3,1.144-0.444,2.489-2.052,2.518c-1.195,0.021-2.155-1.115-2.349-2.7
			C22.076,25.478,22.522,23.632,23.354,21.901z M2.597,16.299c-0.35,0.403-0.602,0.106-0.821-0.172
			c-0.354-0.445-0.016-0.638,0.333-0.724c0.633-0.157,1.282-0.254,1.925-0.373C3.554,15.534,3.009,15.823,2.597,16.299z
			 M26.098,33.846c-5.465,0.745-10.794,0.125-15.722-2.468c-4.891-2.574-7.756-6.509-7.475-12.29
			c0.112-2.327,1.309-3.117,3.504-2.234c0.875,0.351,1.687,0.862,2.516,1.319c3.516,1.939,7.284,3.003,11.287,3.151
			c1.165,0.042,1.17,0.453,0.858,1.354c-0.701,2.023-0.909,4.103-0.236,6.173c0.46,1.406,1.404,2.414,2.89,2.787
			c1.855,0.466,3.213-0.247,4.002-1.995c0.39-0.869,0.393-1.828,0.742-3.023c0.939,1.17,1.685,2.152,2.487,3.084
			c0.865,1.002,2.031,1.417,3.246,0.939c1.28-0.504,2.001-1.58,2.116-3.021c0.147-1.852-0.312-3.564-1.058-5.228
			c-0.117-0.262-0.332-0.575-0.057-0.821c0.282-0.251,0.562,0.022,0.803,0.166c1.121,0.659,2.253,1.271,3.55,1.547
			c2.451,0.521,4.305-1.411,3.705-3.87c-0.33-1.345-1.188-2.294-2.229-3.101c-0.67-0.517-1.398-0.962-2.126-1.397
			c-0.584-0.349-0.662-0.67-0.114-1.122c1.739-1.437,3.331-3.023,4.742-4.783c0.446-0.558,0.859-0.551,1.378-0.116
			c0.787,0.658,1.716,1.036,2.731,1.123c0.724,0.062,0.76,0.415,0.651,1.011c-0.296,1.619-0.521,3.249-0.806,4.87
			c-0.129,0.739-0.4,1.407-0.937,1.995c-1.281,1.406-2.055,3.112-2.247,4.976c-0.124,1.202-0.67,2.054-1.426,2.863
			C38.329,30.595,32.555,32.968,26.098,33.846z M48.859,53.284c-6.265-3.924-12.541-7.834-17.754-13.175
			c-1.225-1.254-2.287-2.643-3.216-4.129c-0.441-0.711-0.419-1.128,0.586-1.313c1.594-0.293,2.973-0.621,4.688,0.224
			c2.191,1.081,4.717,0.378,7.032-0.239c1.118-0.299,1.952-0.301,2.88,0.491c1.056,0.901,4.092,3.287,5.709,4.468l0,0l1.172,0.854
			c0.063,1.094,1.295,3.006,1.972,4.362c0.259,0.518,0.334,0.977,0.084,1.558c-0.87,2.021-1.481,4.13-1.848,6.301
			C50.005,53.622,49.623,53.762,48.859,53.284z M50.843,68.303c3.127,8.54,8.533,14.364,17.254,16.845
			c-4.729,1.311-9.412,1.872-14.114,0.243c-2.665-0.923-3.728-3.128-4.032-5.654C49.5,76,49.989,72.29,50.843,68.303z
			 M66.427,90.804c-1.975-0.009-3.871-0.359-5.734-0.969c-3.705-1.213-7.439-1.33-11.219-0.352
			c-2.774,0.721-5.613,0.897-8.469,0.941c-1.007,0.016-1.228-0.264-0.85-1.217c0.695-1.759,1.751-3.112,3.577-3.794
			c0.313-0.117,0.947-0.119,0.787-0.68c-0.141-0.493-0.69-0.26-1.049-0.252c-2.291,0.051-4.343,1.828-5.339,4.599
			c-0.209,0.582-0.209,1.208-1.183,1.179c-1.874-0.056-1.978-0.088-1.449-1.929c0.518-1.806,1.435-3.396,2.695-4.786
			c1.863-2.059,4.279-2.189,6.78-1.898c0.984,0.112,1.953,0.4,2.917,0.656c0.418,0.11,0.828,0.239,1.049,0.736
			c1.61,3.616,4.849,4.505,8.347,4.83c4.295,0.396,8.459-0.336,12.507-1.767C70.963,89.818,70.213,90.821,66.427,90.804z
			 M63.091,80.226C56.975,76.609,53.513,71,52.002,64.19c-1.266-5.7-0.797-11.361,0.979-17.148c1.761,2.833,3.943,4.98,6.611,6.638
			c0.198,0.123,0.363,0.354,0.466,0.571c1.487,3.167,4.134,4.04,7.334,3.527c1.179-0.188,2.261,0.054,3.384,0.148
			c5.79,0.497,11.458,0.117,16.844-2.314c1.804-0.812,3.359-1.969,4.678-3.437c0.535-0.596,0.926-0.745,1.549-0.061
			c5.342,5.888,5.203,13.993,1.346,20.396c0.011-1.443,0.011-2.577,0.211-3.724c0.105-0.6,0.529-1.619-0.334-1.823
			c-0.726-0.171-0.805,0.871-1.023,1.431c-0.821,2.103-1.328,4.321-1.471,6.545c-0.337,5.312-0.301,10.617,2.551,15.416
			c0.416,0.702,0.312,1.159-0.287,1.659c-1.75,1.463-3.814,2.228-6.025,2.404c-2.433,0.192-4.888,0.205-7.315-0.278
			c-1.093-0.218-1.451-0.582-1.084-1.808c1.503-4.994,2.229-10.135,2.112-15.345c-0.08-3.544-0.486-7.074-2.37-10.233
			c-0.89-1.488-2.023-2.724-3.577-3.528c-0.337-0.174-0.745-0.493-1.065-0.04c-0.253,0.361,0.072,0.653,0.32,0.896
			c2.987,2.943,3.6,6.812,4.018,10.692c0.234,2.175,0.452,4.369,0.319,6.576c-0.058,0.907-0.342,1.532-1.334,1.676
			C73.274,83.831,67.946,83.099,63.091,80.226z M78.669,90.693c-1.87,0.224-2.826-0.806-3.003-2.717
			c-0.021-0.198-0.038-0.396-0.059-0.596c-0.096-1.109,0.22-1.633,1.523-1.696c2.628-0.128,2.622-0.233,2.438,2.433
			c-0.003,0.049,0.008,0.104-0.011,0.148C79.231,89.083,80.073,90.523,78.669,90.693z M99.397,97.517
			c0.628,0.772,1.292,1.53,1.49,2.553c0.148,0.757-0.084,1.368-0.694,1.852c-0.652,0.513-1.232,0.203-1.784-0.156
			c-1.373-0.889-2.322-2.175-3.232-3.497c-0.265-0.386-0.498-1.018-1.12-0.74c-0.698,0.312-0.395,0.887-0.2,1.413
			c0.757,2.064,1.474,4.138,1.354,6.395c-0.063,1.204-0.442,2.152-1.728,2.477c-1.252,0.316-1.839-0.568-2.361-1.418
			c-0.98-1.584-1.495-3.355-1.912-5.162c-0.118-0.509-0.125-1.204-0.853-1.224c-0.754-0.02-0.744,0.725-0.883,1.208
			c-0.474,1.64-1.071,3.22-2.082,4.604c-0.346,0.479-0.78,0.916-1.245,1.285c-0.844,0.67-1.858,0.883-2.795,0.346
			c-0.899-0.519-0.858-1.523-0.725-2.43c0.264-1.786,0.872-3.47,1.647-5.101c0.184-0.384,0.5-0.851,0.021-1.221
			c-0.537-0.415-0.909-0.008-1.268,0.365c-1.108,1.155-2.262,2.253-3.77,2.896c-1.015,0.433-1.951,0.464-2.69-0.493
			c-0.733-0.953-0.806-2.024,0.002-2.878c2.073-2.191,4.185-4.059,7.716-3.354c4.662,0.933,9.262,0.594,13.363-2.472
			C96.621,94.632,98.139,95.97,99.397,97.517z M108.339,90.581c-0.718,0.291-1.962,0.954-2.381-0.68
			c-0.196-0.768-0.632-1.462-1.154-2.078c-0.697-0.82-1.531-1.419-2.609-1.628c-0.483-0.094-1.119-0.364-1.359,0.164
			c-0.318,0.694,0.518,0.687,0.869,0.896c1.433,0.856,2.125,2.156,2.491,3.804c-1.904,0.121-3.646-0.136-5.465-0.41
			c-2.594-0.391-2.913-1.929-3.309-3.848c-0.132-0.635-0.056-1.043,0.421-1.432c0.192-0.154,0.328-0.382,0.518-0.542
			c0.821-0.702,1.086-2.008,2.579-1.999c2.032,0.013,3.97,0.009,5.549,1.612c1.37,1.396,2.717,2.803,3.668,4.516
			C108.424,89.437,109.354,90.169,108.339,90.581z"/>
		<path d="M71.154,76.22c-1.104,0.043-1.85,0.691-1.793,1.942c0.025,1.055,0.916,1.898,1.931,1.835
			c0.95-0.062,2.035-1.117,1.901-1.978C73.022,76.899,72.273,76.176,71.154,76.22z M71.547,79.104
			c-0.581,0.021-0.957-0.271-0.947-0.879c0.009-0.612,0.407-0.878,0.981-0.846c0.521,0.032,0.788,0.353,0.804,0.879
			C72.356,78.789,72.064,79.084,71.547,79.104z"/>
		<path d="M83.498,28.424c-0.02,3.395,2.902,6.301,6.312,6.275c3.429-0.025,6.309-2.96,6.231-6.35
			c-0.079-3.406-2.871-6.094-6.309-6.075C86.309,22.294,83.519,25.046,83.498,28.424z M88.537,25.607
			c0.975,0.062,1.585,0.531,1.619,1.554c0.035,1.013-0.532,1.607-1.504,1.662c-1.062,0.059-1.718-0.573-1.722-1.614
			C86.926,26.244,87.529,25.68,88.537,25.607z"/>
		<path d="M74.977,31.682c3.444,0.021,6.267-2.821,6.246-6.291c-0.017-3.43-2.741-6.131-6.195-6.138
			c-3.503-0.009-6.308,2.775-6.278,6.235C68.776,28.854,71.604,31.666,74.977,31.682z M73.528,22.457
			c0.974,0.019,1.516,0.628,1.615,1.561c-0.075,1.04-0.577,1.652-1.585,1.676c-1.091,0.026-1.698-0.646-1.678-1.669
			C71.899,23.064,72.543,22.437,73.528,22.457z"/>
		<path d="M70.792,51.208c-0.198,0-0.396,0.037-0.822,0.082c-1.144,0.149-2.362-0.225-2.871-1.549
			c-0.598-1.563-1.826-3.175-0.336-4.912c0.251-0.292,0.337-0.63,0.19-0.973c-0.175-0.401-0.531-0.58-0.973-0.555
			c-0.606,0.033-1.184,0.168-1.712,0.481c-0.659,0.39-1.201,0.885-1.457,1.638c-0.298,0.883,0.641,0.674,0.896,1.045
			c0.181,0.262,0.167,0.66,0.246,0.995c0.33,1.421,0.806,2.777,1.807,3.883c1.382,1.528,3.672,1.859,5.306,0.766
			c0.229-0.152,0.587-0.276,0.479-0.655C71.43,51.052,71.069,51.206,70.792,51.208z"/>
		<path d="M80.145,34.031c-3.075-0.729-6.024-0.419-8.753,1.479c6.208-1.984,11.312-0.127,15.65,4.506
			C86.52,37.314,83.621,34.856,80.145,34.031z"/>
		<path d="M75.423,37.635c-1.152-0.002-2.092,0.823-2.142,1.878c-0.049,1.068,0.984,2.096,2.118,2.106
			c1.152,0.009,2.157-0.979,2.114-2.079C77.474,38.451,76.581,37.637,75.423,37.635z"/>
		<path d="M80.507,38.829c-1.117,0.055-1.773,0.659-1.84,1.771c-0.059,0.982,0.957,1.877,1.939,1.842
			c1.103-0.155,1.815-0.688,1.86-1.827C82.511,39.558,81.631,38.772,80.507,38.829z"/>
		<path d="M5.02,20.797c0.289,2.6,1.916,4.215,4.125,5.349c2.425,1.242,5.37,1.355,7.058,0.184
			C11.275,26.697,7.542,25.01,5.02,20.797z"/>
		<path d="M46.537,12.309c0.133-0.283,0.495-0.653,0.032-0.894c-0.452-0.235-0.588,0.211-0.696,0.53
			c-0.394,1.165-0.767,2.334-1.146,3.502c0.091,0.021,0.183,0.042,0.274,0.063C45.516,14.446,46.038,13.382,46.537,12.309z"/>
		<path d="M49.064,30.985c0.57,0.75,1.245,1.036,2.011,0.269c1.063-1.068,0.766-4.394-0.596-5.491
			c0.185,1.39,0.405,2.662,0.247,3.944c-0.037,0.302-0.13,0.631-0.473,0.677c-0.382,0.051-0.497-0.318-0.572-0.582
			c-0.607-2.205-0.37-4.342,0.572-6.411c0.166-0.364,0.376-0.728,0.872-0.695c0.552,0.037,0.735,0.438,0.878,0.888
			c0.318,1.002,0.524,2.014,0.574,3.077c0.073,1.64-0.193,3.257-0.385,5.229c1.95-1.881,1.843-8.142,0.444-9.816
			c-0.837-1.001-1.835-1.052-2.84-0.115C48.047,23.592,47.595,29.056,49.064,30.985z"/>
	</g>
</g>
<g>
</g>
<g>
</g>
<g>
</g>
<g>
</g>
<g>
</g>
<g>
</g>
<g>
</g>
<g>
</g>
<g>
</g>
<g>
</g>
<g>
</g>
<g>
</g>
<g>
</g>
<g>
</g>
<g>
</g>
</svg>
