<?xml version="1.0" encoding="iso-8859-1"?>
<!-- Generator: Adobe Illustrator 17.1.0, SVG Export Plug-In . SVG Version: 6.00 Build 0)  -->
<!DOCTYPE svg PUBLIC "-//W3C//DTD SVG 1.1//EN" "http://www.w3.org/Graphics/SVG/1.1/DTD/svg11.dtd">
<svg version="1.1" id="Capa_1" xmlns="http://www.w3.org/2000/svg" xmlns:xlink="http://www.w3.org/1999/xlink" x="0px" y="0px"
	 viewBox="0 0 442.001 442.001" style="enable-background:new 0 0 442.001 442.001;" xml:space="preserve">
<path d="M439.072,264.068l-61.859-61.859c-2.453-2.453-6-3.461-9.376-2.659l-15.199,3.599l74.712-74.712
	c1.39-1.391,2.328-3.147,2.721-5.043l11.657-49.226c0.799-3.375-0.208-6.923-2.66-9.376L377.209,2.932
	c-2.453-2.452-6.003-3.462-9.375-2.659l-49.207,11.652c-1.855,0.378-3.624,1.287-5.063,2.726l-74.712,74.713l3.6-15.199
	c0.799-3.375-0.208-6.923-2.66-9.376L177.933,2.929c-2.453-2.452-6-3.46-9.375-2.659l-49.349,11.686
	c-1.789,0.393-3.49,1.28-4.886,2.664c-0.001,0.001-0.002,0.002-0.003,0.003c-0.003,0.004-0.007,0.007-0.011,0.011
	c-0.001,0.001-0.003,0.003-0.004,0.004c-0.005,0.005-0.009,0.01-0.014,0.014l-99.637,99.637c-0.073,0.073-0.145,0.147-0.216,0.223
	c-0.781,0.829-1.394,1.758-1.838,2.744c-0.313,0.692-0.542,1.412-0.688,2.146L0.272,168.554c-0.799,3.375,0.208,6.924,2.66,9.376
	l61.859,61.858c2.452,2.452,6.002,3.462,9.375,2.659l15.2-3.599l-74.719,74.718c-1.392,1.393-2.331,3.152-2.723,5.052L0.269,367.836
	c-0.799,3.375,0.208,6.923,2.66,9.376l61.859,61.859c1.897,1.897,4.45,2.929,7.072,2.929c0.767,0,1.54-0.088,2.304-0.27
	l49.244-11.66c1.89-0.396,3.64-1.332,5.026-2.718l74.718-74.719l-3.6,15.199c-0.799,3.375,0.208,6.923,2.66,9.376l61.859,61.859
	c2.452,2.452,5.999,3.463,9.376,2.659l49.147-11.639c0.907-0.181,1.794-0.487,2.632-0.921c0.922-0.477,1.783-1.104,2.546-1.883
	l99.576-99.575c0.005-0.005,0.01-0.01,0.014-0.015c0.001-0.001,0.002-0.002,0.003-0.003c0.004-0.004,0.009-0.009,0.013-0.013
	c0,0,0-0.001,0.001-0.001c1.384-1.396,2.272-3.1,2.665-4.889l11.686-49.347C442.531,270.069,441.524,266.521,439.072,264.068z
	 M367.013,21.02l53.968,53.968l-6.307,26.631l-74.292-74.292L367.013,21.02z M249.283,135.501l-14.142-14.142l85.495-85.494
	l85.501,85.5l-85.495,85.495l-50.146-50.146c-3.905-3.903-10.237-3.904-14.142,0c-3.905,3.905-3.905,10.237,0,14.143l50.146,50.146
	l-85.501,85.501l-85.501-85.501l85.501-85.501l14.141,14.142c3.906,3.904,10.237,3.905,14.143,0
	C253.187,145.738,253.187,139.406,249.283,135.501z M167.736,21.017l53.968,53.968l-6.306,26.631l-74.292-74.292L167.736,21.017z
	 M74.988,221.701L21.02,167.734l6.304-26.621l44.535,44.534c3.905,3.904,10.237,3.904,14.142,0c3.905-3.905,3.905-10.237,0-14.143
	l-50.14-50.139l85.501-85.501l85.495,85.494l-85.501,85.501l-14.142-14.142c-3.904-3.904-10.237-3.904-14.142,0
	c-3.906,3.905-3.905,10.237,0,14.143l8.536,8.536L74.988,221.701z M74.985,420.984l-53.968-53.968l6.307-26.631l74.292,74.292
	L74.985,420.984z M121.362,406.139l-85.501-85.501l85.495-85.494l85.5,85.501L121.362,406.139z M274.268,420.981L220.3,367.013
	l6.304-26.621l74.284,74.284L274.268,420.981z M320.636,406.139l-85.495-85.494l85.501-85.501l85.494,85.495L320.636,406.139z
	 M414.677,300.896l-74.292-74.293l26.63-6.307l53.968,53.968L414.677,300.896z"/>
<g>
</g>
<g>
</g>
<g>
</g>
<g>
</g>
<g>
</g>
<g>
</g>
<g>
</g>
<g>
</g>
<g>
</g>
<g>
</g>
<g>
</g>
<g>
</g>
<g>
</g>
<g>
</g>
<g>
</g>
</svg>
